# xmcd CD database file
#
# Track frame offsets:
#	150
#	27744
#	63096
#	83292
#	103809
#	118766
#	133149
#	146835
#	161876
#	175301
#	200955
#	231920
#	253287
#
# Disc length: 3723 seconds
#
# Revision: 0
# Processed by: cddbd v1.5.2PL0 Copyright (c) Steve Scherf et al.
# Submitted via: CDex 1.70beta2
#
DISCID=c80e890d
DTITLE=Various Artist - Anniversary 60
DYEAR=2012
DGENRE=Jazz
TTITLE0=Bohemia After Dark - Cannonball Adderley
TTITLE1=Star Eyes - Donald Byrd
TTITLE2=P.S. I Love You - Lee Morgan
TTITLE3=B.J. - John Coltrane
TTITLE4=Now's The Time - Charlie Parker
TTITLE5=The Huckle-Buck - Paul Williams
TTITLE6=Cornbread - Hal Singer
TTITLE7=Body And Soul - Eddie Jefferson
TTITLE8=Trav'lin Light - Gene Ammons
TTITLE9=Between The Sheets - The Isley Brothers
TTITLE10=Sensuality - The Isley Brothers
TTITLE11=Have I Said I Love You Lately - Nayobe
TTITLE12=Caravan Of Love - Isley Jasper Isley
EXTD=YEAR: 2012
EXTT0=
EXTT1=
EXTT2=
EXTT3=
EXTT4=
EXTT5=
EXTT6=
EXTT7=
EXTT8=
EXTT9=
EXTT10=
EXTT11=
EXTT12=
PLAYORDER=
